<svg width="192" height="192" viewBox="0 0 192 192" fill="none" xmlns="http://www.w3.org/2000/svg">
<rect width="192" height="192" fill="#272727"/>
<g clip-path="url(#clip0_201_799)">
<path d="M171.932 112.396C171.932 116.951 171.954 121.503 171.928 126.058C171.904 130.066 169.954 131.15 166.48 129.028C150.517 119.269 134.582 109.464 118.606 99.7261C117.609 99.1189 116.298 98.5096 115.227 98.6479C113.251 98.9007 112.985 100.621 112.991 102.362C113.017 110.045 113.084 117.733 112.939 125.414C112.911 126.857 112.36 128.951 111.352 129.523C110.379 130.079 108.281 129.424 107.059 128.678C91.4134 119.126 75.8525 109.44 60.2115 99.8773C59.0501 99.1665 57.0085 98.4643 56.178 99.0001C55.1442 99.6656 54.4953 101.612 54.4651 103.023C54.305 110.514 54.4002 118.011 54.385 125.504C54.3764 129.208 53.7276 129.916 50.1331 129.932C41.4843 129.968 32.8354 129.97 24.1866 129.942C20.7132 129.932 20.019 129.201 20.0125 125.74C19.9995 117.106 19.9952 108.474 20.019 99.8406C20.0276 96.5996 20.7976 95.8261 24.085 95.8132C32.5435 95.7808 41.0041 95.811 49.4626 95.7916C53.135 95.7829 53.8184 95.1066 53.8271 91.4876C53.8444 83.0439 53.7535 74.6002 53.9049 66.1586C53.9309 64.7412 54.5797 62.7923 55.6156 62.1096C56.4418 61.5651 58.5029 62.2392 59.6621 62.9479C75.3031 72.5065 90.8663 82.1926 106.512 91.7447C107.734 92.4901 109.81 93.1621 110.789 92.6176C111.791 92.0602 112.349 89.9687 112.377 88.534C112.526 80.9481 112.381 73.3556 112.509 65.7675C112.53 64.4992 113.071 62.546 113.934 62.1593C115.007 61.6796 116.893 62.1225 118.033 62.8139C135.006 73.105 151.897 83.5343 168.861 93.8427C171.048 95.1715 172.121 96.645 171.989 99.3069C171.775 103.661 171.93 108.032 171.932 112.396Z" fill="#AAEEC4"/>
</g>
<defs>
<clipPath id="clip0_201_799">
<rect width="152" height="68.1829" fill="white" transform="translate(20 61.9082)"/>
</clipPath>
</defs>
</svg>
