<svg width="316" height="81" viewBox="0 0 316 81" fill="none" xmlns="http://www.w3.org/2000/svg">
<path d="M0.5 80L28.7 7.1H46.7L74.9 80H58.1L52.7 64.9H22.3L16.8 80H0.5ZM34.3 32.4L27.2 51.9H47.9L40.8 32.4C39.8 29.6667 38.7333 26.3667 37.6 22.5C37 24.5 36.4333 26.3 35.9 27.9C35.3667 29.4333 34.8333 30.9333 34.3 32.4ZM88.6758 80L68.2758 22.4H85.0758L92.0758 45.5C93.2091 49.1 94.2424 52.5333 95.1758 55.8C96.1091 59.0667 97.0758 62.7333 98.0758 66.8C99.0091 62.8 99.9758 59.0667 100.976 55.6C101.976 52.1333 102.976 48.7333 103.976 45.4L111.176 22.4H127.076L106.776 80H88.6758ZM135.871 80V22.4H151.371V80H135.871ZM135.771 14.4V0.599997H151.471V14.4H135.771ZM186.047 81C179.847 81 174.947 79.2333 171.347 75.7C167.814 72.1667 166.047 67.1667 166.047 60.7V22.4H181.547V57.8C181.547 64.2667 184.614 67.5 190.747 67.5C193.947 67.5 196.547 66.5 198.547 64.5C200.614 62.5 201.78 59.9 202.047 56.7V22.4H217.547V80H203.247L202.647 72.2C200.714 75.2 198.314 77.4333 195.447 78.9C192.647 80.3 189.514 81 186.047 81ZM229.621 80V22.4H243.521L244.621 30.4C246.621 27.2667 249.021 25 251.821 23.6C254.688 22.1333 257.654 21.4 260.721 21.4C264.521 21.4 267.954 22.3 271.021 24.1C274.088 25.8333 276.421 28.4667 278.021 32C279.688 28.7333 282.088 26.1667 285.221 24.3C288.354 22.3667 291.888 21.4 295.821 21.4C302.088 21.4 306.888 23.2 310.221 26.8C313.621 30.4 315.321 35.1333 315.321 41V80H299.721V45C299.721 41.9333 299.021 39.5 297.621 37.7C296.221 35.9 294.021 35 291.021 35C287.821 35 285.221 35.9667 283.221 37.9C281.221 39.8333 280.221 42.7333 280.221 46.6V80H264.721V45.3C264.721 42.2333 264.021 39.7667 262.621 37.9C261.221 35.9667 258.988 35 255.921 35C252.588 35 249.954 36.0667 248.021 38.2C246.154 40.3333 245.221 43.0667 245.221 46.4V80H229.621Z" fill="white"/>
</svg>
